<?xml version="1.0" encoding="UTF-8"?>
<svg id="_Слой_2" data-name="Слой 2" xmlns="http://www.w3.org/2000/svg" viewBox="0 0 207.17 56.69">
  <defs>
    <style>
      .cls-1 {
        fill: #e7b045;
      }

      .cls-2 {
        fill: #000806;
      }
    </style>
  </defs>
  <g id="_Слой_1-2" data-name="Слой 1">
    <g>
      <g>
        <path class="cls-1" d="M56.64,26.58c-.05-.86-.15-1.72-.31-2.66-.42-2.8-1.3-5.57-2.61-8.18C48.93,6.04,39.2,0,28.35,0c-6.71,0-13.2,2.38-18.3,6.71-1.81,1.52-3.4,3.24-4.75,5.12-2.09,2.9-3.61,6.19-4.47,9.72C.27,23.75,0,26.03,0,28.35c0,2.53.32,4.97.96,7.31.75,2.8,1.91,5.43,3.43,7.82,2.43,3.84,5.77,7.06,9.7,9.36,4.2,2.45,9.07,3.85,14.25,3.85,1.3,0,2.56-.08,3.81-.26,4.73-.61,9.09-2.4,12.76-5.04,6.87-4.92,11.42-12.88,11.76-22,.02-.32.02-.68.02-1.05,0-.6-.02-1.18-.05-1.77h0ZM52.26,29.24c-.11,3.35-.92,6.51-2.28,9.36-1.86,3.89-4.71,7.19-8.26,9.57-1,.7-2.04,1.3-3.14,1.81h-.02c-.75.36-1.51.66-2.28.94-1.07.37-2.17.68-3.3.89-.37.08-.75.15-1.12.2-1.15.18-2.32.26-3.5.26-5.04,0-9.72-1.56-13.57-4.23-3.09-2.14-5.67-5.01-7.48-8.33-.54-.99-1.01-2.01-1.38-3.08h-.02c-.96-2.59-1.47-5.38-1.47-8.29,0-1.3.15-2.56.34-3.81.03.13.05.27.08.39l.88,2.75c.23.71,1.02,1.39,1.76,1.51l4.08.63c.7.1,1.43.7,1.7,1.36.03.05.05.11.07.16l.37,1.25c.23.71-.08,1.67-.7,2.11l-.86.63c-.6.44-1.25,1.39-1.43,2.12l-.42,1.7-.21.84c-.18.73.21,1.62.86,1.98.66.36,1.81.75,2.54.87h.03c.73.13,1.62.68,1.98,1.2.03.05.08.11.11.18.36.55.84,1.39,1.13,2.01l1.28,2.53c.32.68,1.17,1.23,1.86,1.23s1.15-.62,1.04-1.36l-.6-3.82c-.11-.75.11-1.88.5-2.53l.66-1.1c.41-.65.68-1.78.65-2.54l-.1-1.78c-.05-.75-.65-1.6-1.35-1.9l-2.53-1.05c-.7-.29-1.46-1.12-1.69-1.83l-.63-1.94c-.15-.45-.29-1.12-.36-1.72-.07-.34-.1-.68-.1-.94v-.07c-.02-.75.39-1.83.89-2.38l.32-.36c.21-.24.45-.36.66-.37.29-.02.55.18.7.55.26.65.71,1.07,1.02.92.32-.14,1.68-1.82,2.37-2.59.38-.43.76-1.03.89-1.19.51-.62.66-1.06.85-1.79l1.15-4.26c.19-.73-.11-1.73-.68-2.22l-.73-.62c-.57-.48-1.46-1.33-1.99-1.86l-.19-.19s-.07-.07-.11-.1c-.55-.49-1.52-.87-2.22-.87h-4.11c-.32,0-.81-.02-1.31,0,1.57-1.33,3.3-2.45,5.17-3.34.02-.02.03-.02.05-.02,3.11-1.47,6.58-2.3,10.22-2.3,8,0,15.1,3.95,19.42,9.99l-5.2-.7c-.44-.07-.97.05-1.44.27-.32.15-.82.4-1.02.64,0,0-2.21,1.59-2.77,2.29-.57.72-1.7,3.02-1.7,3.02l-.15.32c-.47.58-.8,1.68-.84,2.43l-.13,1.91c-.05.75.48,1.12,1.03.62l.85-.43c.55-.5,1.56-.96,2.3-.96l.6.03c.76,0,1.35.13,1.52.86l.16.63c.18.73.11,1.73-.13,2.25-.26.5-1.07.88-1.83.79l-1.99-.18c-.75-.08-1.77.31-2.28.87l-.66.73c-.11.13-.23.29-.32.47-.32.57-.5,1.33-.42,1.89l.27,1.88c.02.18.08.37.16.57.23.62.66,1.26,1.12,1.6l.94.68c.6.45,1.09,1.43,1.09,2.19l-.07,4.39c-.02.65.36,1.39.84,1.76.08.07.16.11.24.16.62.31,1.52.1,2.03-.47l.91-1.01c.5-.57,1.13-1.6,1.41-2.3,0,0,.58-1.52.58-1.83,0-.29.5-.54.5-.54.68-.31,1.46-.99,1.72-1.51.19-.41.47-.99.66-1.47.06-.13.11-.26.14-.37.18-.49.81-1.28,1.41-1.73l.1-.08c.6-.47,1.28-.69,1.69-1.33l.76-.94c.11-.18.12-.45.14-.58,0-.06-.18-.42-.2-.5-.1-.21-.68-.41-1.1-.33l-.77-.15c-.75-.13-.76-.03-1.37-.47l-.58-.41c-.61-.42-1.02-1.02-.91-1.31.13-.29.78-.23,1.43.14l.49.28c.65.37,1.8.63,2.54.58l.11-.02.5-.03c.75-.07,1.54-.44,1.75-.84.16-.31.29-.75.36-1.09.03.41.05.81.05,1.23,0,.29,0,.58-.01.89h0Z"/>
        <path class="cls-1" d="M45.42,42.52c-.08.49-.42,1.17-.75,1.51-.29.32-.76.68-1.09.84-.03.02-.07.03-.1.05-.34.15-.66.13-.73-.03-.05-.15-.05-.49.02-.73.07-.26.47-.92.91-1.49.34-.45.78-.83,1.1-.95.08-.05.16-.07.23-.07.29,0,.49.39.41.87h0Z"/>
      </g>
      <g>
        <g>
          <path class="cls-2" d="M73.33,40.16l-1.53,1.64v3.62s-4.06,0-4.06,0v-14.5s4.06,0,4.06,0v6.03s5.61-6.03,5.61-6.03h4.51s-5.92,6.42-5.92,6.42l6.23,8.08h-4.76s-4.14-5.26-4.14-5.26Z"/>
          <path class="cls-2" d="M85.89,44.73c-1.22-.65-2.18-1.55-2.88-2.69-.7-1.15-1.05-2.44-1.05-3.87,0-1.44.35-2.73,1.05-3.87.7-1.15,1.66-2.04,2.88-2.69,1.22-.65,2.6-.97,4.13-.97,1.53,0,2.91.32,4.13.97,1.22.65,2.18,1.55,2.88,2.69.7,1.15,1.05,2.44,1.05,3.87,0,1.44-.35,2.73-1.05,3.87-.7,1.15-1.66,2.04-2.88,2.69-1.22.65-2.6.97-4.13.97-1.53,0-2.91-.32-4.13-.97ZM92.01,41.79c.59-.35,1.06-.83,1.41-1.46.34-.63.52-1.35.52-2.16,0-.81-.17-1.54-.52-2.16-.35-.63-.81-1.11-1.41-1.46-.59-.34-1.26-.52-1.99-.52-.73,0-1.39.17-1.99.52-.59.35-1.06.83-1.41,1.46-.35.63-.52,1.35-.52,2.16,0,.81.17,1.54.52,2.16.35.63.81,1.11,1.41,1.46.59.35,1.26.52,1.99.52.73,0,1.39-.17,1.99-.52Z"/>
          <path class="cls-2" d="M114.06,30.92v14.5s-4.1,0-4.1,0v-5.65s-5.59,0-5.59,0v5.65s-4.1,0-4.1,0v-14.5s4.1,0,4.1,0v5.45s5.59,0,5.59,0v-5.45s4.1,0,4.1,0Z"/>
          <path class="cls-2" d="M128.85,34.16h-4.43s0,11.25,0,11.25h-4.04s0-11.24,0-11.24h-4.45s0-3.25,0-3.25h12.92s0,3.25,0,3.25Z"/>
          <path class="cls-2" d="M130.73,30.91h4.04s0,8.51,0,8.51l5.98-8.51h3.85s0,14.5,0,14.5h-4.04s0-8.49,0-8.49l-5.96,8.49h-3.87s0-14.5,0-14.5Z"/>
          <path class="cls-2" d="M161.5,30.91v14.5s-4.1,0-4.1,0v-5.65s-5.59,0-5.59,0v5.65s-4.1,0-4.1,0v-14.5s4.1,0,4.1,0v5.45s5.59,0,5.59,0v-5.45s4.1,0,4.1,0Z"/>
          <path class="cls-2" d="M176.25,42.23v3.17s-11.64,0-11.64,0v-14.5s11.37,0,11.37,0v3.17s-7.31,0-7.31,0v2.44s6.44,0,6.44,0v3.06s-6.44,0-6.44,0v2.65s7.58,0,7.58,0Z"/>
          <path class="cls-2" d="M192.38,30.9v14.5s-4.1,0-4.1,0v-5.65s-5.59,0-5.59,0v5.65s-4.1,0-4.1,0v-14.5s4.1,0,4.1,0v5.45s5.59,0,5.59,0v-5.45s4.1,0,4.1,0Z"/>
          <path class="cls-2" d="M207.17,34.15h-4.43s0,11.25,0,11.25h-4.04s0-11.24,0-11.24h-4.45s0-3.25,0-3.25h12.92s0,3.25,0,3.25Z"/>
        </g>
        <g>
          <path class="cls-2" d="M81.53,11.64v14.5s-4.1,0-4.1,0v-5.65s-5.59,0-5.59,0v5.65s-4.1,0-4.1,0v-14.5s4.1,0,4.1,0v5.45s5.59,0,5.59,0v-5.45s4.1,0,4.1,0Z"/>
          <path class="cls-2" d="M87.63,25.46c-1.22-.65-2.18-1.55-2.88-2.69-.7-1.15-1.05-2.44-1.05-3.87,0-1.44.35-2.73,1.05-3.87.7-1.15,1.66-2.04,2.88-2.69,1.22-.65,2.6-.97,4.13-.97s2.91.32,4.13.97c1.22.65,2.18,1.55,2.88,2.69.7,1.15,1.05,2.44,1.05,3.87,0,1.44-.35,2.73-1.05,3.87-.7,1.15-1.66,2.04-2.88,2.69-1.22.65-2.6.97-4.13.97-1.53,0-2.91-.32-4.13-.97ZM93.75,22.51c.59-.35,1.06-.83,1.41-1.46.34-.63.52-1.35.52-2.16,0-.81-.17-1.54-.52-2.16-.35-.63-.81-1.11-1.41-1.46-.59-.34-1.26-.52-1.99-.52-.73,0-1.39.17-1.99.52-.59.35-1.06.83-1.41,1.46-.35.63-.52,1.35-.52,2.16,0,.81.17,1.54.52,2.16.35.63.81,1.11,1.41,1.46.59.35,1.26.52,1.99.52.73,0,1.39-.17,1.99-.52Z"/>
          <path class="cls-2" d="M114.53,19.84c.45.58.67,1.3.67,2.15,0,1.28-.5,2.3-1.5,3.03-1,.74-2.42,1.11-4.26,1.11h-7.43s0-14.49,0-14.49h7.04c1.74,0,3.09.33,4.05.98.96.66,1.44,1.58,1.44,2.79,0,.7-.17,1.33-.51,1.86-.34.54-.82.97-1.46,1.28.86.28,1.51.7,1.96,1.28ZM106.05,17.44h2.61c1.16,0,1.74-.48,1.74-1.43,0-.95-.58-1.43-1.74-1.43h-2.61s0,2.86,0,2.86ZM111.06,21.68c0-.98-.59-1.47-1.78-1.47h-3.23s0,2.98,0,2.98h3.23c1.19,0,1.78-.5,1.78-1.51Z"/>
          <path class="cls-2" d="M128.93,17.44c.97.79,1.45,1.97,1.45,3.53,0,1.67-.54,2.95-1.61,3.83-1.08.88-2.57,1.33-4.49,1.33h-6.85s0-14.49,0-14.49h4.04s0,4.62,0,4.62h3.35c1.78,0,3.15.4,4.12,1.19ZM125.65,22.63c.41-.37.61-.9.61-1.57,0-1.26-.75-1.88-2.26-1.88h-2.55s0,4.02,0,4.02h2.55c.69,0,1.24-.19,1.65-.56ZM131.97,11.63h4.04s0,14.5,0,14.5h-4.04s0-14.5,0-14.5Z"/>
          <polygon class="cls-2" points="139.14 11.63 143.18 11.63 143.18 20.14 149.16 11.63 153.01 11.63 153.01 26.13 148.98 26.13 148.98 17.64 143.01 26.13 139.14 26.13 139.14 11.63"/>
          <polygon class="cls-2" points="144.92 9.84 146.8 4.82 151.11 4.82 147.35 9.84 144.92 9.84"/>
        </g>
      </g>
    </g>
  </g>
</svg>